<svg xmlns="http://www.w3.org/2000/svg" width="280.74316" height="271.70172" viewBox="0 0 280.74316 271.70172">
  <title>Asset 1</title>
  <g>
    <polygon points="53.658 11.339 53.658 90.709 172.713 90.709 172.713 11.339 53.658 11.339 53.658 11.339" style="fill: #e8ce8f"/>
    <polygon points="93.343 90.709 93.343 114.803 172.713 114.803 172.713 90.709 93.343 90.709 93.343 90.709"/>
    <polygon points="147.201 0 147.201 51.024 198.225 51.024 198.225 0 147.201 0 147.201 0" style="fill: #006227"/>
    <polygon points="172.713 51.024 172.713 133.825 250.366 133.825 250.366 51.024 172.713 51.024 172.713 51.024" style="fill: #c4161c"/>
    <path d="M264.70416,54.16066a6.021,6.021,0,1,0,.808,3.01869,5.94033,5.94033,0,0,0-.808-3.01869Zm-1.076,5.37929a4.65289,4.65289,0,0,1-1.757,1.7262,4.84312,4.84312,0,0,1-4.8-.004,4.7021,4.7021,0,0,1-2.389-4.1064,4.56737,4.56737,0,0,1,1.407-3.36563,4.65407,4.65407,0,0,1,3.401-1.39508,4.762,4.762,0,0,1,4.138,7.1449Zm-6.652.9577h1.45v-2.5616h1.175a1.63039,1.63039,0,0,1,.713.1024.549.549,0,0,1,.248.30739,5.01642,5.01642,0,0,1,.095,1.0799,4.63563,4.63563,0,0,0,.039.6226,2.206,2.206,0,0,0,.142.44931h1.655a.74594.74594,0,0,1-.28-.38231,12.551,12.551,0,0,1-.106-1.4305,2.39414,2.39414,0,0,0-.165-.9025,1.20722,1.20722,0,0,0-.497-.46111,1.84727,1.84727,0,0,0,.61105-.65811,2.00281,2.00281,0,0,0,.16095-.86308,2.03739,2.03739,0,0,0-.26395-1.06409,1.60141,1.60141,0,0,0-.69705-.64632,3.356,3.356,0,0,0-1.356-.2049h-2.924v6.6129Zm2.672-5.3439a1.63134,1.63134,0,0,1,.926.17729.714.714,0,0,1,.225.59511.74539.74539,0,0,1-.229.6069,1.5664,1.5664,0,0,1-.93.18921h-1.214V55.15375Z"/>
    <path d="M37.813,129.13675l-2.01529,1.909a15.38006,15.38006,0,0,0-4.764-3.243,12.79651,12.79651,0,0,0-5.04678-1.106,12.04408,12.04408,0,0,0-5.82571,1.503,10.91037,10.91037,0,0,0-4.28619,4.075,10.5208,10.5208,0,0,0-1.52109,5.436,10.74039,10.74039,0,0,0,1.57379,5.577,11.165,11.165,0,0,0,4.34869,4.15405,12.50517,12.50517,0,0,0,6.08121,1.512,10.39726,10.39726,0,0,0,6.78848-2.262,8.93106,8.93106,0,0,0,3.2879-5.869H28.14276v-2.512h11.2088q-.03676,6.03-3.5802,9.574a12.82174,12.82174,0,0,1-9.48441,3.544q-7.21248,0-11.41989-4.915a13.06486,13.06486,0,0,1-3.23459-8.75,13.42275,13.42275,0,0,1,1.85477-6.877,13.21052,13.21052,0,0,1,5.09229-4.977,14.8441,14.8441,0,0,1,7.31863-1.794,16.28181,16.28181,0,0,1,6.22238,1.193,18.58157,18.58157,0,0,1,5.6925,3.828Z"/>
    <path d="M60.07265,144.39175l2.08612,1.098a11.38278,11.38278,0,0,1-2.37071,3.252,9.414,9.414,0,0,1-3.02609,1.882,10.53353,10.53353,0,0,1-3.80391.646,9.192,9.192,0,0,1-7.36128-3.085,10.40454,10.40454,0,0,1-2.65442-6.974,10.28584,10.28584,0,0,1,2.24741-6.523,9.18683,9.18683,0,0,1,7.62579-3.642,9.49133,9.49133,0,0,1,7.85641,3.73,10.42064,10.42064,0,0,1,2.1232,6.576H45.488a7.83106,7.83106,0,0,0,2.1423,5.495,6.83069,6.83069,0,0,0,5.11458,2.142,8.21143,8.21143,0,0,0,2.85849-.511,7.49683,7.49683,0,0,0,2.3625-1.356,11.50808,11.50808,0,0,0,2.1068-2.73Zm0-5.179a8.20871,8.20871,0,0,0-1.4422-3.164,6.85194,6.85194,0,0,0-2.505-1.91,7.68752,7.68752,0,0,0-3.27431-.724,7.05073,7.05073,0,0,0-4.86739,1.821,8.22484,8.22484,0,0,0-2.2475,3.977Z"/>
    <path d="M66.84106,131.54074h2.5284v2.81a8.87152,8.87152,0,0,1,2.387-2.483,4.703,4.703,0,0,1,2.61641-.822,4.51909,4.51909,0,0,1,2.19191.655l-1.29091,2.085a3.45923,3.45923,0,0,0-1.30811-.336,3.57813,3.57813,0,0,0-2.3869,1.017,6.42577,6.42577,0,0,0-1.74971,3.155,30.26987,30.26987,0,0,0-.45969,6.647v6.506h-2.5284v-19.234Z"/>
    <path d="M79.34537,131.54074h2.47479v3.324a9.58907,9.58907,0,0,1,2.65529-2.688,7.52742,7.52742,0,0,1,3.9472-1.131,6.57524,6.57524,0,0,1,2.65431.548,5.71641,5.71641,0,0,1,2.0526,1.458,7.82547,7.82547,0,0,1,1.38069,2.609,9.12479,9.12479,0,0,1,3.08589-3.439,7.303,7.303,0,0,1,3.986-1.176,6.23847,6.23847,0,0,1,3.519,1.008,6.00086,6.00086,0,0,1,2.266,2.811,14.9904,14.9904,0,0,1,.741,5.409v10.501h-2.529v-10.501a13.79159,13.79159,0,0,0-.439-4.252,3.84207,3.84207,0,0,0-1.507-1.865,4.50349,4.50349,0,0,0-2.547-.707,5.53929,5.53929,0,0,0-3.28511,1.061,6.10139,6.10139,0,0,0-2.1767,2.828,17.94409,17.94409,0,0,0-.68631,5.90494v7.531H92.46326v-9.847a16.90843,16.90843,0,0,0-.4335-4.729,3.96081,3.96081,0,0,0-1.5119-1.997,4.36183,4.36183,0,0,0-2.5629-.752,5.52639,5.52639,0,0,0-3.20839,1.035,6.11984,6.11984,0,0,0-2.2103,2.784,15.01676,15.01676,0,0,0-.71611,5.356v8.15H79.34537v-19.234Z"/>
    <path d="M132.52615,131.54074v19.234h-2.44v-3.306a10.59286,10.59286,0,0,1-3.491,2.846,9.75254,9.75254,0,0,1-11.208-2.006,9.92978,9.92978,0,0,1-2.891-7.204,9.75245,9.75245,0,0,1,2.917-7.107,9.51619,9.51619,0,0,1,7.019-2.952,9.07036,9.07036,0,0,1,4.286,1.008,9.72887,9.72887,0,0,1,3.368,3.023v-3.536Zm-9.891,1.891a7.46981,7.46981,0,0,0-6.595,3.868,7.794,7.794,0,0,0,.008,7.769,7.58912,7.58912,0,0,0,2.8,2.887,7.304,7.304,0,0,0,3.769,1.033,7.72148,7.72148,0,0,0,3.849-1.024,7.15362,7.15362,0,0,0,2.799-2.772,7.91765,7.91765,0,0,0,.98-3.938,7.65465,7.65465,0,0,0-2.199-5.58,7.27961,7.27961,0,0,0-5.411-2.243Z"/>
    <path d="M138.16615,131.54074h2.475v3.447a10.368,10.368,0,0,1,3.288-2.961,8.08561,8.08561,0,0,1,3.925-.981,6.816,6.816,0,0,1,3.827,1.096,6.52061,6.52061,0,0,1,2.466,2.953,15.58729,15.58729,0,0,1,.796,5.78v9.9h-2.475v-9.175a22.66291,22.66291,0,0,0-.275-4.437,4.88359,4.88359,0,0,0-1.65-2.873,4.98717,4.98717,0,0,0-3.183-.963,6.10627,6.10627,0,0,0-4.023,1.485,6.96,6.96,0,0,0-2.342,3.677,25.54034,25.54034,0,0,0-.354,5.233v7.053h-2.475v-19.234Z"/>
    <polygon points="0 158.681 6.376 158.681 6.376 192.416 0 192.416 0 158.681 0 158.681"/>
    <path d="M13.11826,167.46375h6.26059v2.558a15.03916,15.03916,0,0,1,3.85852-2.497,9.32664,9.32664,0,0,1,3.53851-.703,8.5697,8.5697,0,0,1,6.29788,2.592q2.17484,2.202,2.1752,6.513v16.489H29.05725v-10.926a27.62081,27.62081,0,0,0-.40091-5.933,4.06678,4.06678,0,0,0-1.39578-2.234,3.91077,3.91077,0,0,0-2.4592-.767,4.607,4.607,0,0,0-3.26,1.272,6.77842,6.77842,0,0,0-1.888,3.516,28.351,28.351,0,0,0-.27451,5.062v10.01H13.11826v-24.952Z"/>
    <polygon points="41.994 158.269 48.255 158.269 48.255 167.464 51.97 167.464 51.97 172.854 48.255 172.854 48.255 192.416 41.994 192.416 41.994 172.854 38.783 172.854 38.783 167.464 41.994 167.464 41.994 158.269 41.994 158.269"/>
    <path d="M80.11406,181.75275H60.00175a6.69569,6.69569,0,0,0,2.32732,4.231,7.31024,7.31024,0,0,0,4.82759,1.571,8.3492,8.3492,0,0,0,6.03171-2.454l5.27438,2.477a12.45955,12.45955,0,0,1-4.7243,4.14,14.79215,14.79215,0,0,1-6.53578,1.341,12.9146,12.9146,0,0,1-9.56342-3.705,12.598,12.598,0,0,1-3.69211-9.275,13.03275,13.03275,0,0,1,3.68062-9.484,12.36661,12.36661,0,0,1,9.2309-3.773,12.8226,12.8226,0,0,1,9.58562,3.773,13.63254,13.63254,0,0,1,3.69278,9.965l-.023,1.193Zm-6.2607-4.931a6.28622,6.28622,0,0,0-2.4469-3.394,7.08939,7.08939,0,0,0-4.2383-1.308,7.49753,7.49753,0,0,0-4.59441,1.468,8.18013,8.18013,0,0,0-2.29691,3.234Z"/>
    <path d="M84.19826,167.46375h5.36641v3.143a6.69629,6.69629,0,0,1,2.31569-2.821,5.59127,5.59127,0,0,1,3.16479-.964,5.87023,5.87023,0,0,1,2.54572.642l-1.9494,5.39a4.31591,4.31591,0,0,0-1.8116-.55,2.86616,2.86616,0,0,0-2.44211,1.789q-.99779,1.788-.9977,7.017l.0229,1.216v10.09H84.19826v-24.952Z"/>
    <path d="M100.77615,167.46375h6.261v2.558a15.02152,15.02152,0,0,1,3.858-2.497,9.3247,9.3247,0,0,1,3.538-.703,8.56756,8.56756,0,0,1,6.298,2.592q2.175,2.202,2.176,6.513v16.489h-6.192v-10.926a27.62712,27.62712,0,0,0-.401-5.933,4.06628,4.06628,0,0,0-1.396-2.234,3.91081,3.91081,0,0,0-2.459-.767,4.607,4.607,0,0,0-3.26,1.272,6.77913,6.77913,0,0,0-1.888,3.516,28.37725,28.37725,0,0,0-.274,5.062v10.01h-6.261v-24.952Z"/>
    <path d="M147.27016,167.46375h6.259v24.952h-6.259v-2.637a12.27124,12.27124,0,0,1-3.677,2.512,10.3155,10.3155,0,0,1-3.998.768,11.10736,11.10736,0,0,1-8.361-3.751,13.07879,13.07879,0,0,1-3.527-9.321,13.40332,13.40332,0,0,1,3.413-9.471,10.87483,10.87483,0,0,1,8.293-3.694,10.56056,10.56056,0,0,1,4.215.849,11.56154,11.56154,0,0,1,3.642,2.546v-2.753Zm-6.582,5.137a6.32729,6.32729,0,0,0-4.823,2.054,7.396,7.396,0,0,0-1.919,5.263,7.47246,7.47246,0,0,0,1.953,5.32,6.32645,6.32645,0,0,0,4.812,2.087,6.45085,6.45085,0,0,0,4.891-2.052,7.50151,7.50151,0,0,0,1.941-5.378,7.28691,7.28691,0,0,0-1.941-5.275,6.53391,6.53391,0,0,0-4.914-2.019Z"/>
    <polygon points="160.836 158.269 167.097 158.269 167.097 167.464 170.812 167.464 170.812 172.854 167.097 172.854 167.097 192.416 160.836 192.416 160.836 172.854 157.626 172.854 157.626 167.464 160.836 167.464 160.836 158.269 160.836 158.269"/>
    <path d="M177.09717,157.19073a3.83073,3.83073,0,0,1,2.824,1.192,3.96438,3.96438,0,0,1,1.178,2.889,3.91713,3.91713,0,0,1-1.167,2.856,3.77878,3.77878,0,0,1-2.789,1.181,3.83534,3.83534,0,0,1-2.848-1.204,4.02951,4.02951,0,0,1-1.178-2.924,3.98779,3.98779,0,0,1,3.98-3.99Zm-3.131,10.273h6.261v24.952h-6.261v-24.952Z"/>
    <path d="M197.69415,166.82172a13.22436,13.22436,0,0,1,6.639,1.767,12.9525,12.9525,0,0,1,6.594,11.329,13.10574,13.10574,0,0,1-1.754,6.604,12.66054,12.66054,0,0,1-4.782,4.805,13.20619,13.20619,0,0,1-6.674,1.732,12.45161,12.45161,0,0,1-9.162-3.818,13.22892,13.22892,0,0,1,.493-19.024,12.53456,12.53456,0,0,1,8.646-3.395Zm.104,5.894a6.44733,6.44733,0,0,0-4.859,2.03006,7.20538,7.20538,0,0,0-1.941,5.195,7.33749,7.33749,0,0,0,1.918,5.274,6.4134,6.4134,0,0,0,4.859,2.018,6.48721,6.48721,0,0,0,4.892-2.041,8.04935,8.04935,0,0,0,.035-10.469,6.49161,6.49161,0,0,0-4.904-2.007Z"/>
    <path d="M215.81116,167.46375h6.26v2.558a15.05824,15.05824,0,0,1,3.859-2.497,9.32728,9.32728,0,0,1,3.537-.703,8.56984,8.56984,0,0,1,6.299,2.592q2.17346,2.202,2.175,6.513v16.489h-6.191v-10.926a27.53946,27.53946,0,0,0-.402-5.933,4.0596,4.0596,0,0,0-1.395-2.234,3.91075,3.91075,0,0,0-2.459-.767,4.60948,4.60948,0,0,0-3.261,1.272,6.78534,6.78534,0,0,0-1.887,3.516,28.3462,28.3462,0,0,0-.275,5.062v10.01h-6.26v-24.952Z"/>
    <path d="M262.30316,167.46375h6.26v24.952h-6.26v-2.637a12.26234,12.26234,0,0,1-3.678,2.512,10.30558,10.30558,0,0,1-3.996.768,11.10427,11.10427,0,0,1-8.361-3.751,13.07022,13.07022,0,0,1-3.527-9.321,13.39813,13.39813,0,0,1,3.412-9.471,10.87576,10.87576,0,0,1,8.292-3.694,10.55827,10.55827,0,0,1,4.216.849,11.53873,11.53873,0,0,1,3.642,2.546v-2.753Zm-6.581,5.137a6.32941,6.32941,0,0,0-4.824,2.054,7.39654,7.39654,0,0,0-1.92,5.263,7.47739,7.47739,0,0,0,1.954,5.32,6.32885,6.32885,0,0,0,4.811,2.087,6.44948,6.44948,0,0,0,4.89105-2.052,7.50285,7.50285,0,0,0,1.943-5.378,7.2883,7.2883,0,0,0-1.943-5.275,6.52955,6.52955,0,0,0-4.912-2.019Z"/>
    <polygon points="274.482 157.833 280.743 157.833 280.743 192.416 274.482 192.416 274.482 157.833 274.482 157.833"/>
    <path d="M85.396,204.91275l-4.756,4.197q-2.5044-3.4845-5.10081-3.485a3.0997,3.0997,0,0,0-2.06689.676,1.96936,1.96936,0,0,0-.8045,1.526,2.61172,2.61172,0,0,0,.5746,1.605,43.60486,43.60486,0,0,0,4.70941,4.334q3.67543,3.07347,4.4565,3.876a13.41522,13.41522,0,0,1,2.768,3.773,9.40367,9.40367,0,0,1,.81589,3.933,9.01646,9.01646,0,0,1-2.87,6.856,10.46092,10.46092,0,0,1-7.48419,2.707,11.12713,11.12713,0,0,1-6.27892-1.767,13.9351,13.9351,0,0,1-4.58031-5.55l5.39752-3.256q2.43523,4.47295,5.60428,4.472a4.12664,4.12664,0,0,0,2.77942-.963,2.86581,2.86581,0,0,0,1.1256-2.225,3.839,3.839,0,0,0-.8503-2.293,24.51329,24.51329,0,0,0-3.74422-3.508q-5.51369-4.49551-7.1218-6.938a8.813,8.813,0,0,1-1.6082-4.874,7.9728,7.9728,0,0,1,2.67491-6.02,9.28264,9.28264,0,0,1,6.60129-2.51,10.41141,10.41141,0,0,1,4.81012,1.169,17.52619,17.52619,0,0,1,4.94859,4.265Z"/>
    <path d="M115.40115,214.15475l-5.212,2.868a8.86792,8.86792,0,0,0-2.905-2.134,8.735,8.735,0,0,0-3.364-.596,7.83669,7.83669,0,0,0-5.6823,2.095,7.139,7.139,0,0,0-2.16991,5.37,6.90172,6.90172,0,0,0,2.0894,5.198,7.57338,7.57338,0,0,0,5.48779,2.015,7.98356,7.98356,0,0,0,6.544-2.866l4.937,3.379q-4.014,5.22-11.33,5.22-6.582,0-10.3084-3.899a12.9652,12.9652,0,0,1,3.142-20.593,15.08052,15.08052,0,0,1,7.25839-1.744,14.71,14.71,0,0,1,6.674,1.48,12.67684,12.67684,0,0,1,4.839,4.207Z"/>
    <path d="M119.95215,199.47873h6.215v12.15405a14.21993,14.21993,0,0,1,3.693-2.373,9.52387,9.52387,0,0,1,3.761-.792,8.47347,8.47347,0,0,1,6.26,2.568q2.17651,2.22748,2.179,6.537v16.489h-6.17v-10.94a27.10744,27.10744,0,0,0-.411-5.87,4.10211,4.10211,0,0,0-1.412-2.294,3.96514,3.96514,0,0,0-2.466-.757,4.65474,4.65474,0,0,0-3.267,1.261,6.69321,6.69321,0,0,0-1.892,3.441,28.53705,28.53705,0,0,0-.275,5.137v10.022h-6.215v-34.583Z"/>
    <path d="M159.66316,208.46777a13.21437,13.21437,0,0,1,6.639,1.767,12.73838,12.73838,0,0,1,4.851,4.792,12.8831,12.8831,0,0,1,1.744,6.537,13.10953,13.10953,0,0,1-1.755,6.604,12.64428,12.64428,0,0,1-4.782,4.804,13.19612,13.19612,0,0,1-6.674,1.732,12.4509,12.4509,0,0,1-9.162-3.818,13.22778,13.22778,0,0,1,.494-19.024,12.53538,12.53538,0,0,1,8.645-3.394Zm.104,5.894a6.44812,6.44812,0,0,0-4.859,2.029,7.20632,7.20632,0,0,0-1.941,5.196,7.33529,7.33529,0,0,0,1.918,5.273,6.412,6.412,0,0,0,4.859,2.019,6.48658,6.48658,0,0,0,4.893-2.042,8.04937,8.04937,0,0,0,.035-10.469,6.49291,6.49291,0,0,0-4.905-2.006Z"/>
    <path d="M189.40016,208.46777a13.21433,13.21433,0,0,1,6.639,1.767,12.74251,12.74251,0,0,1,4.85,4.792,12.87326,12.87326,0,0,1,1.744,6.537,13.10859,13.10859,0,0,1-1.754,6.604,12.65812,12.65812,0,0,1-4.782,4.804,13.19874,13.19874,0,0,1-6.674,1.732,12.44775,12.44775,0,0,1-9.162-3.818,13.22891,13.22891,0,0,1,.493-19.024,12.53789,12.53789,0,0,1,8.646-3.394Zm.104,5.894a6.44653,6.44653,0,0,0-4.859,2.029,7.20627,7.20627,0,0,0-1.941,5.196,7.33523,7.33523,0,0,0,1.918,5.273,6.41044,6.41044,0,0,0,4.859,2.019,6.48441,6.48441,0,0,0,4.892-2.042,8.04935,8.04935,0,0,0,.035-10.469,6.49076,6.49076,0,0,0-4.904-2.006Z"/>
    <polygon points="207.25 199.479 213.511 199.479 213.511 234.062 207.25 234.062 207.25 199.479 207.25 199.479"/>
    <path d="M94.06575,262.84378l1.6481-.988q1.73971,3.20393,4.02031,3.203a3.85237,3.85237,0,0,0,1.832-.455,3.20969,3.20969,0,0,0,1.305-1.219,3.1607,3.1607,0,0,0,.448-1.621,3.29487,3.29487,0,0,0-.659-1.912,15.75047,15.75047,0,0,0-3.322-3.11,16.91112,16.91112,0,0,1-3.0181-2.65,4.84038,4.84038,0,0,1-1.028-2.965,4.509,4.509,0,0,1,.60629-2.308,4.3155,4.3155,0,0,1,1.7068-1.639,4.90908,4.90908,0,0,1,2.393-.601,5.09363,5.09363,0,0,1,2.563.679,8.79156,8.79156,0,0,1,2.524,2.498l-1.582,1.199a7.58252,7.58252,0,0,0-1.865-1.911,3.21475,3.21475,0,0,0-1.68-.461,2.65452,2.65452,0,0,0-1.91779.712,2.32571,2.32571,0,0,0-.7449,1.752,2.99719,2.99719,0,0,0,.2637,1.227,4.48711,4.48711,0,0,0,.963,1.291q.381.37051,2.503,1.938a14.10252,14.10252,0,0,1,3.454,3.308,5.3337,5.3337,0,0,1,.936,2.914,4.94112,4.94112,0,0,1-1.601,3.663,5.38564,5.38564,0,0,1-3.896,1.556,5.72387,5.72387,0,0,1-3.20261-.942,8.63,8.63,0,0,1-2.64981-3.158Z"/>
    <polygon points="106.605 252.115 108.556 252.115 113.485 263.159 118.271 252.115 120.235 252.115 111.68 271.702 109.731 271.702 112.492 265.371 106.605 252.115 106.605 252.115"/>
    <path d="M136.25716,246.57877v19.877h-1.819v-2.464a7.91062,7.91062,0,0,1-2.603,2.121,7.26817,7.26817,0,0,1-8.357-1.495,7.40014,7.40014,0,0,1-2.154-5.371,7.26826,7.26826,0,0,1,2.174-5.3,7.093,7.093,0,0,1,5.233-2.201,6.74991,6.74991,0,0,1,3.196.752,7.25276,7.25276,0,0,1,2.511,2.254v-8.173Zm-7.374,6.946a5.56957,5.56957,0,0,0-4.918,2.884,5.81326,5.81326,0,0,0,.006,5.793,5.64006,5.64006,0,0,0,2.088,2.152,5.44365,5.44365,0,0,0,2.81.771,5.74778,5.74778,0,0,0,2.87-.764,5.3287,5.3287,0,0,0,2.088-2.067,5.906,5.906,0,0,0,.73-2.935,5.7117,5.7117,0,0,0-1.639-4.161,5.43323,5.43323,0,0,0-4.035-1.673Z"/>
    <path d="M140.47716,252.11475h1.845v2.57a7.70838,7.70838,0,0,1,2.452-2.207,6.01826,6.01826,0,0,1,2.926-.732,5.08385,5.08385,0,0,1,2.854.818,4.87144,4.87144,0,0,1,1.838,2.201,11.59931,11.59931,0,0,1,.594,4.31v7.381h-1.846v-6.84a16.88339,16.88339,0,0,0-.205-3.31,3.63627,3.63627,0,0,0-1.23-2.141,3.71766,3.71766,0,0,0-2.373-.718,4.554,4.554,0,0,0-3,1.107,5.19128,5.19128,0,0,0-1.746,2.742,19.03509,19.03509,0,0,0-.264,3.902v5.258h-1.845v-14.341Z"/>
    <path d="M169.03317,261.69772l1.555.818a8.49464,8.49464,0,0,1-1.767,2.425,7.01335,7.01335,0,0,1-2.257,1.403,7.85928,7.85928,0,0,1-2.836.482,6.85745,6.85745,0,0,1-5.489-2.3,7.76542,7.76542,0,0,1-1.979-5.201,7.6612,7.6612,0,0,1,1.677-4.863,6.8478,6.8478,0,0,1,5.686-2.716,7.07606,7.07606,0,0,1,5.856,2.781,7.77784,7.77784,0,0,1,1.585,4.904h-12.906a5.84423,5.84423,0,0,0,1.597,4.096,5.096,5.096,0,0,0,3.815,1.598,6.14969,6.14969,0,0,0,2.131-.38,5.634,5.634,0,0,0,1.761-1.011,8.64551,8.64551,0,0,0,1.571-2.036Zm0-3.861a6.10877,6.10877,0,0,0-1.076-2.361,5.08943,5.08943,0,0,0-1.867-1.423,5.73,5.73,0,0,0-2.442-.54,5.251,5.251,0,0,0-3.628,1.358,6.1045,6.1045,0,0,0-1.676,2.966Z"/>
    <polygon points="172.205 252.115 174.155 252.115 179.085 263.159 183.87 252.115 185.835 252.115 177.28 271.702 175.33 271.702 178.091 265.371 172.205 252.115 172.205 252.115"/>
  </g>
</svg>
